<?xml version="1.0" encoding="UTF-8" standalone="no"?>
<svg
   xmlns:dc="http://purl.org/dc/elements/1.1/"
   xmlns:cc="http://creativecommons.org/ns#"
   xmlns:rdf="http://www.w3.org/1999/02/22-rdf-syntax-ns#"
   xmlns:svg="http://www.w3.org/2000/svg"
   xmlns="http://www.w3.org/2000/svg"
   id="svg8"
   version="1.1"
   viewBox="0 0 512 512"
   height="512"
   width="512">
  <defs
     id="defs2" />
  <metadata
     id="metadata5">
    <rdf:RDF>
      <cc:Work
         rdf:about="">
        <dc:format>image/svg+xml</dc:format>
        <dc:type
           rdf:resource="http://purl.org/dc/dcmitype/StillImage" />
        <dc:title></dc:title>
      </cc:Work>
    </rdf:RDF>
  </metadata>
  <g
     id="layer1">
    <g
       style="font-style:normal;font-weight:normal;font-size:587.531px;line-height:1.25;font-family:sans-serif;fill:#000000;fill-opacity:1;stroke:none;stroke-width:14.6883"
       id="text1404"
       aria-label="n">
      <path
         id="path833"
         style="font-style:normal;font-variant:normal;font-weight:bold;font-stretch:normal;font-family:'Playfair Display';-inkscape-font-specification:'Playfair Display Bold';stroke-width:14.6883"
         d="m 305.05884,65.822885 q 24.6763,0 39.95211,6.462841 15.86333,5.87531 24.6763,16.450868 9.4005,11.16309 13.51321,28.789016 4.70025,17.62593 4.70025,47.59002 v 158.04584 q 0,24.6763 8.22543,33.48926 8.81297,8.81297 29.37656,8.81297 v 12.33815 q -11.16309,-0.58753 -33.48927,-1.17506 -22.32618,-1.17506 -44.06483,-1.17506 -22.32618,0 -44.06482,1.17506 -21.15112,0.58753 -32.31421,1.17506 V 365.4637 q 17.62593,0 24.6763,-8.81297 7.05038,-8.81296 7.05038,-33.48926 V 140.43932 q 0,-14.68827 -2.93766,-25.26383 -2.93765,-11.16309 -10.57556,-17.038399 -7.6379,-6.462841 -22.91371,-6.462841 -24.6763,0 -41.7147,19.38852 -16.45087,19.38853 -16.45087,48.76508 v 163.33362 q 0,24.6763 7.05038,33.48926 7.6379,8.81297 24.6763,8.81297 v 12.33815 q -10.57556,-0.58753 -31.13914,-1.17506 -19.97606,-1.17506 -41.71471,-1.17506 -22.32617,0 -45.82741,1.17506 -23.501245,0.58753 -35.251865,1.17506 V 365.4637 q 20.563585,0 28.789015,-8.81297 8.81297,-8.81296 8.81297,-33.48926 V 138.0892 q 0,-26.4389 -8.22543,-38.777047 Q 108.23595,86.38647 86.497305,86.38647 V 74.048319 q 18.800995,1.762593 36.426925,1.762593 24.6763,0 45.82742,-1.762593 21.73864,-2.350124 39.9521,-6.462841 V 120.46327 Q 223.39203,90.499188 248.65586,78.161036 273.9197,65.822885 305.05884,65.822885 Z" />
    </g>
    <path
       d="m 81.753906,414.78711 v 47.44813 H 430.24609 v -47.44813 z"
       style="fill:#ff0000;fill-opacity:1;stroke-width:0.793775;stroke-linecap:round;stroke-linejoin:round"
       id="rect1424" />
  </g>
</svg>
