<?xml version="1.0" standalone="no"?>
<!DOCTYPE svg PUBLIC "-//W3C//DTD SVG 20010904//EN"
 "http://www.w3.org/TR/2001/REC-SVG-20010904/DTD/svg10.dtd">
<svg version="1.0" xmlns="http://www.w3.org/2000/svg"
 width="700.000000pt" height="700.000000pt" viewBox="0 0 700.000000 700.000000"
 preserveAspectRatio="xMidYMid meet">
<metadata>
Created by potrace 1.14, written by Peter Selinger 2001-2017
</metadata>
<g transform="translate(0.000000,700.000000) scale(0.100000,-0.100000)"
fill="#000000" stroke="none">
<path d="M1404 3500 l1 -2425 657 0 656 0 -1 1272 c-2 955 1 1274 10 1277 6 3
18 -3 26 -12 12 -14 278 -401 853 -1237 34 -49 89 -130 123 -180 34 -49 167
-242 294 -428 128 -185 287 -417 354 -515 l122 -177 549 0 549 0 -1 2425 -1
2425 -655 0 -655 0 -2 -1264 c-1 -1334 -1 -1310 -44 -1263 -9 9 -117 166 -240
347 -123 182 -278 411 -346 510 -67 99 -169 250 -227 335 -57 85 -154 227
-213 315 -60 88 -158 232 -218 320 -59 88 -141 207 -180 265 -39 58 -120 177
-180 265 -60 88 -110 162 -112 165 -3 3 -256 5 -563 5 l-558 0 2 -2425z"/>
</g>
</svg>
