<?xml version="1.0" standalone="no"?>
<!DOCTYPE svg PUBLIC "-//W3C//DTD SVG 20010904//EN" "http://www.w3.org/TR/2001/REC-SVG-20010904/DTD/svg10.dtd">
<svg version="1.0" xmlns="http://www.w3.org/2000/svg" width="700.000000pt" height="700.000000pt" viewBox="0 0 700.000000 700.000000" preserveAspectRatio="xMidYMid meet">
	<metadata>
Created by potrace 1.14, written by Peter Selinger 2001-2017
</metadata>
	<g transform="translate(0.000000,700.000000) scale(0.100000,-0.100000)" fill="#000000" stroke="none">
		<path d="M3960 6089 c-113 -14 -134 -17 -185 -29 -27 -7 -59 -13 -69 -16 -71
-14 -238 -78 -331 -126 -112 -58 -260 -179 -341 -279 -41 -50 -113 -158 -138
-205 -14 -27 -29 -55 -34 -62 -5 -7 -8 133 -8 334 1 190 -2 351 -5 356 -6 10
-21 9 -99 -7 -58 -12 -189 -34 -245 -41 -27 -3 -53 -8 -56 -10 -3 -2 -41 -6
-84 -10 -44 -3 -88 -8 -99 -10 -42 -8 -368 -18 -571 -18 -181 0 -365 7 -482
18 l-32 3 1 -83 c1 -83 1 -84 27 -85 140 -4 252 -44 327 -117 76 -75 136 -236
151 -406 10 -103 10 -2790 1 -2873 -4 -34 -14 -90 -23 -124 -51 -197 -168
-276 -430 -294 -22 -2 -43 -4 -46 -4 -3 -1 -6 -38 -7 -84 l0 -84 41 3 c23 1
112 5 197 8 85 3 245 9 355 13 260 9 774 9 990 0 94 -4 229 -10 300 -13 72 -3
150 -6 175 -7 l45 -2 0 84 0 84 -55 3 c-147 9 -264 73 -313 172 -17 33 -44
131 -53 192 -4 25 -7 605 -9 1290 -2 1290 -1 1315 40 1470 20 78 80 210 126
277 107 156 273 274 446 318 120 31 320 23 408 -16 155 -68 235 -207 262 -459
4 -36 8 -688 7 -1450 0 -1277 -1 -1392 -17 -1475 -43 -219 -136 -301 -364
-320 -21 -1 -41 -3 -44 -4 -4 -1 -6 -38 -6 -84 l-1 -83 42 2 c22 1 106 5 186
8 80 3 226 9 325 13 230 9 739 9 965 0 96 -4 256 -10 355 -13 99 -3 190 -7
202 -9 28 -5 34 15 30 104 l-2 64 -65 3 c-91 5 -165 22 -236 54 -106 48 -153
115 -190 275 -17 75 -18 155 -20 1315 0 679 -4 1287 -8 1350 -6 97 -18 192
-41 331 -11 63 -59 210 -91 278 -88 188 -205 299 -414 389 -58 26 -203 69
-260 77 -25 4 -54 9 -65 12 -37 9 -399 10 -465 2z" />
		<path d="M1119 1318 c-1 -18 -1 -599 0 -620 1 -17 121 -18 2384 -18 l2382 0
-2 303 c0 166 -2 312 -2 325 l-1 22 -2380 0 c-1897 0 -2380 -3 -2381 -12z" />
	</g>
</svg>
