<?xml version="1.0" encoding="utf-8" standalone="no"?>
<!DOCTYPE svg PUBLIC "-//W3C//DTD SVG 1.1//EN"
  "http://www.w3.org/Graphics/SVG/1.1/DTD/svg11.dtd">
<svg xmlns:xlink="http://www.w3.org/1999/xlink" width="995.393918pt" height="259.835397pt" viewBox="0 0 995.393918 259.835397" xmlns="http://www.w3.org/2000/svg" version="1.1">
 <metadata>
  <rdf:RDF xmlns:dc="http://purl.org/dc/elements/1.1/" xmlns:cc="http://creativecommons.org/ns#" xmlns:rdf="http://www.w3.org/1999/02/22-rdf-syntax-ns#">
   <cc:Work>
    <dc:type rdf:resource="http://purl.org/dc/dcmitype/StillImage"/>
    <dc:date>2022-02-21T00:06:51.756222</dc:date>
    <dc:format>image/svg+xml</dc:format>
    <dc:creator>
     <cc:Agent>
      <dc:title>Matplotlib v3.5.1, https://matplotlib.org/</dc:title>
     </cc:Agent>
    </dc:creator>
   </cc:Work>
  </rdf:RDF>
 </metadata>
 <defs>
  <style type="text/css">*{stroke-linejoin: round; stroke-linecap: butt}</style>
 </defs>
 <g id="figure_1">
  <g id="patch_1">
   <path d="M 0 259.835397 
L 995.393918 259.835397 
L 995.393918 0 
L 0 0 
z
" style="fill: #ffffff"/>
  </g>
  <g id="axes_1">
   <g id="line2d_1">
    <path d="M 115.53473 43.5608 
L 983.648818 43.5608 
" clip-path="url(#p5a7fff6ce1)" style="fill: none; stroke: #000000; stroke-width: 2; stroke-linecap: square"/>
   </g>
   <g id="line2d_2">
    <path d="M 115.53473 89.011799 
L 983.648818 89.011799 
" clip-path="url(#p5a7fff6ce1)" style="fill: none; stroke: #000000; stroke-width: 2; stroke-linecap: square"/>
   </g>
   <g id="line2d_3">
    <path d="M 115.53473 134.462798 
L 983.648818 134.462798 
" clip-path="url(#p5a7fff6ce1)" style="fill: none; stroke: #000000; stroke-width: 2; stroke-linecap: square"/>
   </g>
   <g id="line2d_4">
    <path d="M 115.53473 179.913798 
L 983.648818 179.913798 
" clip-path="url(#p5a7fff6ce1)" style="fill: none; stroke: #000000; stroke-width: 2; stroke-linecap: square"/>
   </g>
   <g id="line2d_5">
    <path d="M 115.53473 225.364797 
L 983.648818 225.364797 
" clip-path="url(#p5a7fff6ce1)" style="fill: none; stroke: #000000; stroke-width: 2; stroke-linecap: square"/>
   </g>
   <g id="patch_2">
    <path d="M 176.666324 66.286299 
L 194.392214 66.286299 
L 194.392214 20.8353 
L 176.666324 20.8353 
z
" clip-path="url(#p5a7fff6ce1)" style="fill: #bdbdbd; opacity: 0.6"/>
   </g>
   <g id="patch_3">
    <path d="M 176.666324 111.737299 
L 194.392214 111.737299 
L 194.392214 66.286299 
L 176.666324 66.286299 
z
" clip-path="url(#p5a7fff6ce1)" style="fill: #bdbdbd; opacity: 0.6"/>
   </g>
   <g id="patch_4">
    <path d="M 176.666324 157.188298 
L 194.392214 157.188298 
L 194.392214 111.737299 
L 176.666324 111.737299 
z
" clip-path="url(#p5a7fff6ce1)" style="fill: #bdbdbd; opacity: 0.6"/>
   </g>
   <g id="patch_5">
    <path d="M 176.666324 202.639297 
L 194.392214 202.639297 
L 194.392214 157.188298 
L 176.666324 157.188298 
z
" clip-path="url(#p5a7fff6ce1)" style="fill: #bdbdbd; opacity: 0.6"/>
   </g>
   <g id="patch_6">
    <path d="M 176.666324 248.090297 
L 194.392214 248.090297 
L 194.392214 202.639297 
L 176.666324 202.639297 
z
" clip-path="url(#p5a7fff6ce1)" style="fill: #bdbdbd; opacity: 0.6"/>
   </g>
   <g id="line2d_6">
    <path d="M 276.431267 179.913798 
L 276.431267 43.5608 
" clip-path="url(#p5a7fff6ce1)" style="fill: none; stroke: #bb8bff; stroke-width: 2; stroke-linecap: square"/>
   </g>
   <g id="patch_7">
    <path d="M 358.470321 66.286299 
L 376.196211 66.286299 
L 376.196211 20.8353 
L 358.470321 20.8353 
z
" clip-path="url(#p5a7fff6ce1)" style="fill: #bdbdbd; opacity: 0.6"/>
   </g>
   <g id="patch_8">
    <path d="M 358.470321 111.737299 
L 376.196211 111.737299 
L 376.196211 66.286299 
L 358.470321 66.286299 
z
" clip-path="url(#p5a7fff6ce1)" style="fill: #bdbdbd; opacity: 0.6"/>
   </g>
   <g id="patch_9">
    <path d="M 358.470321 157.188298 
L 376.196211 157.188298 
L 376.196211 111.737299 
L 358.470321 111.737299 
z
" clip-path="url(#p5a7fff6ce1)" style="fill: #bdbdbd; opacity: 0.6"/>
   </g>
   <g id="patch_10">
    <path d="M 358.470321 202.639297 
L 376.196211 202.639297 
L 376.196211 157.188298 
L 358.470321 157.188298 
z
" clip-path="url(#p5a7fff6ce1)" style="fill: #bdbdbd; opacity: 0.6"/>
   </g>
   <g id="patch_11">
    <path d="M 358.470321 248.090297 
L 376.196211 248.090297 
L 376.196211 202.639297 
L 358.470321 202.639297 
z
" clip-path="url(#p5a7fff6ce1)" style="fill: #bdbdbd; opacity: 0.6"/>
   </g>
   <g id="line2d_7">
    <path d="M 458.235265 134.462798 
L 458.235265 43.5608 
" clip-path="url(#p5a7fff6ce1)" style="fill: none; stroke: #bb8bff; stroke-width: 2; stroke-linecap: square"/>
   </g>
   <g id="patch_12">
    <path d="M 540.274319 66.286299 
L 558.000209 66.286299 
L 558.000209 20.8353 
L 540.274319 20.8353 
z
" clip-path="url(#p5a7fff6ce1)" style="fill: #bdbdbd; opacity: 0.6"/>
   </g>
   <g id="patch_13">
    <path d="M 540.274319 111.737299 
L 558.000209 111.737299 
L 558.000209 66.286299 
L 540.274319 66.286299 
z
" clip-path="url(#p5a7fff6ce1)" style="fill: #bdbdbd; opacity: 0.6"/>
   </g>
   <g id="patch_14">
    <path d="M 540.274319 157.188298 
L 558.000209 157.188298 
L 558.000209 111.737299 
L 540.274319 111.737299 
z
" clip-path="url(#p5a7fff6ce1)" style="fill: #bdbdbd; opacity: 0.6"/>
   </g>
   <g id="patch_15">
    <path d="M 540.274319 202.639297 
L 558.000209 202.639297 
L 558.000209 157.188298 
L 540.274319 157.188298 
z
" clip-path="url(#p5a7fff6ce1)" style="fill: #bdbdbd; opacity: 0.6"/>
   </g>
   <g id="patch_16">
    <path d="M 540.274319 248.090297 
L 558.000209 248.090297 
L 558.000209 202.639297 
L 540.274319 202.639297 
z
" clip-path="url(#p5a7fff6ce1)" style="fill: #bdbdbd; opacity: 0.6"/>
   </g>
   <g id="line2d_8">
    <path d="M 640.039263 134.462798 
L 640.039263 43.5608 
" clip-path="url(#p5a7fff6ce1)" style="fill: none; stroke: #bb8bff; stroke-width: 2; stroke-linecap: square"/>
   </g>
   <g id="line2d_9">
    <path d="M 685.490262 225.364797 
L 685.490262 43.5608 
" clip-path="url(#p5a7fff6ce1)" style="fill: none; stroke: #bb8bff; stroke-width: 2; stroke-linecap: square"/>
   </g>
   <g id="patch_17">
    <path d="M 767.529316 66.286299 
L 785.255206 66.286299 
L 785.255206 20.8353 
L 767.529316 20.8353 
z
" clip-path="url(#p5a7fff6ce1)" style="fill: #bdbdbd; opacity: 0.6"/>
   </g>
   <g id="patch_18">
    <path d="M 767.529316 111.737299 
L 785.255206 111.737299 
L 785.255206 66.286299 
L 767.529316 66.286299 
z
" clip-path="url(#p5a7fff6ce1)" style="fill: #bdbdbd; opacity: 0.6"/>
   </g>
   <g id="patch_19">
    <path d="M 767.529316 157.188298 
L 785.255206 157.188298 
L 785.255206 111.737299 
L 767.529316 111.737299 
z
" clip-path="url(#p5a7fff6ce1)" style="fill: #bdbdbd; opacity: 0.6"/>
   </g>
   <g id="patch_20">
    <path d="M 767.529316 202.639297 
L 785.255206 202.639297 
L 785.255206 157.188298 
L 767.529316 157.188298 
z
" clip-path="url(#p5a7fff6ce1)" style="fill: #bdbdbd; opacity: 0.6"/>
   </g>
   <g id="patch_21">
    <path d="M 767.529316 248.090297 
L 785.255206 248.090297 
L 785.255206 202.639297 
L 767.529316 202.639297 
z
" clip-path="url(#p5a7fff6ce1)" style="fill: #bdbdbd; opacity: 0.6"/>
   </g>
   <g id="line2d_10">
    <path d="M 821.84326 134.462798 
L 821.84326 43.5608 
" clip-path="url(#p5a7fff6ce1)" style="fill: none; stroke: #bb8bff; stroke-width: 2; stroke-linecap: square"/>
   </g>
   <g id="line2d_11">
    <path d="M 867.29426 179.913798 
L 867.29426 43.5608 
" clip-path="url(#p5a7fff6ce1)" style="fill: none; stroke: #bb8bff; stroke-width: 2; stroke-linecap: square"/>
   </g>
   <g id="line2d_12">
    <path d="M 912.745259 225.364797 
L 912.745259 43.5608 
" clip-path="url(#p5a7fff6ce1)" style="fill: none; stroke: #bb8bff; stroke-width: 2; stroke-linecap: square"/>
   </g>
   <g id="patch_22">
    <path d="M 949.333314 66.286299 
L 967.059203 66.286299 
L 967.059203 20.8353 
L 949.333314 20.8353 
z
" clip-path="url(#p5a7fff6ce1)" style="fill: #bdbdbd; opacity: 0.6"/>
   </g>
   <g id="patch_23">
    <path d="M 949.333314 111.737299 
L 967.059203 111.737299 
L 967.059203 66.286299 
L 949.333314 66.286299 
z
" clip-path="url(#p5a7fff6ce1)" style="fill: #bdbdbd; opacity: 0.6"/>
   </g>
   <g id="patch_24">
    <path d="M 949.333314 157.188298 
L 967.059203 157.188298 
L 967.059203 111.737299 
L 949.333314 111.737299 
z
" clip-path="url(#p5a7fff6ce1)" style="fill: #bdbdbd; opacity: 0.6"/>
   </g>
   <g id="patch_25">
    <path d="M 949.333314 202.639297 
L 967.059203 202.639297 
L 967.059203 157.188298 
L 949.333314 157.188298 
z
" clip-path="url(#p5a7fff6ce1)" style="fill: #bdbdbd; opacity: 0.6"/>
   </g>
   <g id="patch_26">
    <path d="M 949.333314 248.090297 
L 967.059203 248.090297 
L 967.059203 202.639297 
L 949.333314 202.639297 
z
" clip-path="url(#p5a7fff6ce1)" style="fill: #bdbdbd; opacity: 0.6"/>
   </g>
   <g id="patch_27">
    <path d="M 125.306694 58.332374 
L 154.849844 58.332374 
L 154.849844 28.789225 
L 125.306694 28.789225 
z
" clip-path="url(#p5a7fff6ce1)" style="fill: #6fa4ff; stroke: #6fa4ff; stroke-width: 1.5; stroke-linejoin: miter"/>
   </g>
   <g id="patch_28">
    <path d="M 125.306694 103.783374 
L 154.849844 103.783374 
L 154.849844 74.240224 
L 125.306694 74.240224 
z
" clip-path="url(#p5a7fff6ce1)" style="fill: #6fa4ff; stroke: #6fa4ff; stroke-width: 1.5; stroke-linejoin: miter"/>
   </g>
   <g id="patch_29">
    <path d="M 216.208693 58.332374 
L 245.751843 58.332374 
L 245.751843 28.789225 
L 216.208693 28.789225 
z
" clip-path="url(#p5a7fff6ce1)" style="fill: #05bab6; stroke: #05bab6; stroke-width: 1.5; stroke-linejoin: miter"/>
   </g>
   <g id="patch_30">
    <path d="M 216.208693 103.783374 
L 245.751843 103.783374 
L 245.751843 74.240224 
L 216.208693 74.240224 
z
" clip-path="url(#p5a7fff6ce1)" style="fill: #05bab6; stroke: #05bab6; stroke-width: 1.5; stroke-linejoin: miter"/>
   </g>
   <g id="patch_31">
    <path d="M 276.431267 47.992272 
C 277.606508 47.992272 278.733771 47.525344 279.564792 46.694324 
C 280.395812 45.863303 280.86274 44.73604 280.86274 43.5608 
C 280.86274 42.385559 280.395812 41.258296 279.564792 40.427275 
C 278.733771 39.596255 277.606508 39.129327 276.431267 39.129327 
C 275.256027 39.129327 274.128764 39.596255 273.297743 40.427275 
C 272.466723 41.258296 271.999795 42.385559 271.999795 43.5608 
C 271.999795 44.73604 272.466723 45.863303 273.297743 46.694324 
C 274.128764 47.525344 275.256027 47.992272 276.431267 47.992272 
z
" clip-path="url(#p5a7fff6ce1)" style="fill: #bb8bff; stroke: #bb8bff; stroke-width: 1.5; stroke-linejoin: miter"/>
   </g>
   <g id="patch_32">
    <path d="M 276.431267 93.443271 
C 277.606508 93.443271 278.733771 92.976343 279.564792 92.145323 
C 280.395812 91.314303 280.86274 90.187039 280.86274 89.011799 
C 280.86274 87.836559 280.395812 86.709295 279.564792 85.878275 
C 278.733771 85.047254 277.606508 84.580326 276.431267 84.580326 
C 275.256027 84.580326 274.128764 85.047254 273.297743 85.878275 
C 272.466723 86.709295 271.999795 87.836559 271.999795 89.011799 
C 271.999795 90.187039 272.466723 91.314303 273.297743 92.145323 
C 274.128764 92.976343 275.256027 93.443271 276.431267 93.443271 
z
" clip-path="url(#p5a7fff6ce1)" style="fill: #bb8bff; stroke: #bb8bff; stroke-width: 1.5; stroke-linejoin: miter"/>
   </g>
   <g id="patch_33">
    <path d="M 276.431267 190.2539 
C 279.173495 190.2539 281.803777 189.164402 283.742824 187.225354 
C 285.681871 185.286307 286.77137 182.656025 286.77137 179.913798 
C 286.77137 177.171571 285.681871 174.541289 283.742824 172.602241 
C 281.803777 170.663194 279.173495 169.573695 276.431267 169.573695 
C 273.68904 169.573695 271.058758 170.663194 269.119711 172.602241 
C 267.180664 174.541289 266.091165 177.171571 266.091165 179.913798 
C 266.091165 182.656025 267.180664 185.286307 269.119711 187.225354 
C 271.058758 189.164402 273.68904 190.2539 276.431267 190.2539 
z
" clip-path="url(#p5a7fff6ce1)" style="fill: #bb8bff; stroke: #bb8bff; stroke-width: 2; stroke-linejoin: miter"/>
   </g>
   <g id="patch_34">
    <path d="M 307.110692 58.332374 
L 336.653842 58.332374 
L 336.653842 28.789225 
L 307.110692 28.789225 
z
" clip-path="url(#p5a7fff6ce1)" style="fill: #05bab6; stroke: #05bab6; stroke-width: 1.5; stroke-linejoin: miter"/>
   </g>
   <g id="patch_35">
    <path d="M 307.110692 103.783374 
L 336.653842 103.783374 
L 336.653842 74.240224 
L 307.110692 74.240224 
z
" clip-path="url(#p5a7fff6ce1)" style="fill: #05bab6; stroke: #05bab6; stroke-width: 1.5; stroke-linejoin: miter"/>
   </g>
   <g id="patch_36">
    <path d="M 398.012691 58.332374 
L 427.55584 58.332374 
L 427.55584 28.789225 
L 398.012691 28.789225 
z
" clip-path="url(#p5a7fff6ce1)" style="fill: #05bab6; stroke: #05bab6; stroke-width: 1.5; stroke-linejoin: miter"/>
   </g>
   <g id="patch_37">
    <path d="M 458.235265 47.992272 
C 459.410505 47.992272 460.537769 47.525344 461.368789 46.694324 
C 462.19981 45.863303 462.666737 44.73604 462.666737 43.5608 
C 462.666737 42.385559 462.19981 41.258296 461.368789 40.427275 
C 460.537769 39.596255 459.410505 39.129327 458.235265 39.129327 
C 457.060025 39.129327 455.932761 39.596255 455.101741 40.427275 
C 454.270721 41.258296 453.803793 42.385559 453.803793 43.5608 
C 453.803793 44.73604 454.270721 45.863303 455.101741 46.694324 
C 455.932761 47.525344 457.060025 47.992272 458.235265 47.992272 
z
" clip-path="url(#p5a7fff6ce1)" style="fill: #bb8bff; stroke: #bb8bff; stroke-width: 1.5; stroke-linejoin: miter"/>
   </g>
   <g id="patch_38">
    <path d="M 458.235265 93.443271 
C 459.410505 93.443271 460.537769 92.976343 461.368789 92.145323 
C 462.19981 91.314303 462.666737 90.187039 462.666737 89.011799 
C 462.666737 87.836559 462.19981 86.709295 461.368789 85.878275 
C 460.537769 85.047254 459.410505 84.580326 458.235265 84.580326 
C 457.060025 84.580326 455.932761 85.047254 455.101741 85.878275 
C 454.270721 86.709295 453.803793 87.836559 453.803793 89.011799 
C 453.803793 90.187039 454.270721 91.314303 455.101741 92.145323 
C 455.932761 92.976343 457.060025 93.443271 458.235265 93.443271 
z
" clip-path="url(#p5a7fff6ce1)" style="fill: #bb8bff; stroke: #bb8bff; stroke-width: 1.5; stroke-linejoin: miter"/>
   </g>
   <g id="patch_39">
    <path d="M 458.235265 144.802901 
C 460.977492 144.802901 463.607774 143.713402 465.546822 141.774355 
C 467.485869 139.835307 468.575367 137.205026 468.575367 134.462798 
C 468.575367 131.720571 467.485869 129.090289 465.546822 127.151242 
C 463.607774 125.212194 460.977492 124.122696 458.235265 124.122696 
C 455.493038 124.122696 452.862756 125.212194 450.923709 127.151242 
C 448.984661 129.090289 447.895163 131.720571 447.895163 134.462798 
C 447.895163 137.205026 448.984661 139.835307 450.923709 141.774355 
C 452.862756 143.713402 455.493038 144.802901 458.235265 144.802901 
z
" clip-path="url(#p5a7fff6ce1)" style="fill: #bb8bff; stroke: #bb8bff; stroke-width: 2; stroke-linejoin: miter"/>
   </g>
   <g id="patch_40">
    <path d="M 488.91469 58.332374 
L 518.457839 58.332374 
L 518.457839 28.789225 
L 488.91469 28.789225 
z
" clip-path="url(#p5a7fff6ce1)" style="fill: #05bab6; stroke: #05bab6; stroke-width: 1.5; stroke-linejoin: miter"/>
   </g>
   <g id="patch_41">
    <path d="M 579.816688 103.783374 
L 609.359838 103.783374 
L 609.359838 74.240224 
L 579.816688 74.240224 
z
" clip-path="url(#p5a7fff6ce1)" style="fill: #05bab6; stroke: #05bab6; stroke-width: 1.5; stroke-linejoin: miter"/>
   </g>
   <g id="patch_42">
    <path d="M 640.039263 47.992272 
C 641.214503 47.992272 642.341767 47.525344 643.172787 46.694324 
C 644.003807 45.863303 644.470735 44.73604 644.470735 43.5608 
C 644.470735 42.385559 644.003807 41.258296 643.172787 40.427275 
C 642.341767 39.596255 641.214503 39.129327 640.039263 39.129327 
C 638.864022 39.129327 637.736759 39.596255 636.905738 40.427275 
C 636.074718 41.258296 635.60779 42.385559 635.60779 43.5608 
C 635.60779 44.73604 636.074718 45.863303 636.905738 46.694324 
C 637.736759 47.525344 638.864022 47.992272 640.039263 47.992272 
z
" clip-path="url(#p5a7fff6ce1)" style="fill: #bb8bff; stroke: #bb8bff; stroke-width: 1.5; stroke-linejoin: miter"/>
   </g>
   <g id="patch_43">
    <path d="M 640.039263 93.443271 
C 641.214503 93.443271 642.341767 92.976343 643.172787 92.145323 
C 644.003807 91.314303 644.470735 90.187039 644.470735 89.011799 
C 644.470735 87.836559 644.003807 86.709295 643.172787 85.878275 
C 642.341767 85.047254 641.214503 84.580326 640.039263 84.580326 
C 638.864022 84.580326 637.736759 85.047254 636.905738 85.878275 
C 636.074718 86.709295 635.60779 87.836559 635.60779 89.011799 
C 635.60779 90.187039 636.074718 91.314303 636.905738 92.145323 
C 637.736759 92.976343 638.864022 93.443271 640.039263 93.443271 
z
" clip-path="url(#p5a7fff6ce1)" style="fill: #bb8bff; stroke: #bb8bff; stroke-width: 1.5; stroke-linejoin: miter"/>
   </g>
   <g id="patch_44">
    <path d="M 640.039263 144.802901 
C 642.78149 144.802901 645.411772 143.713402 647.350819 141.774355 
C 649.289867 139.835307 650.379365 137.205026 650.379365 134.462798 
C 650.379365 131.720571 649.289867 129.090289 647.350819 127.151242 
C 645.411772 125.212194 642.78149 124.122696 640.039263 124.122696 
C 637.297035 124.122696 634.666754 125.212194 632.727706 127.151242 
C 630.788659 129.090289 629.69916 131.720571 629.69916 134.462798 
C 629.69916 137.205026 630.788659 139.835307 632.727706 141.774355 
C 634.666754 143.713402 637.297035 144.802901 640.039263 144.802901 
z
" clip-path="url(#p5a7fff6ce1)" style="fill: #bb8bff; stroke: #bb8bff; stroke-width: 2; stroke-linejoin: miter"/>
   </g>
   <g id="patch_45">
    <path d="M 685.490262 47.992272 
C 686.665502 47.992272 687.792766 47.525344 688.623786 46.694324 
C 689.454807 45.863303 689.921734 44.73604 689.921734 43.5608 
C 689.921734 42.385559 689.454807 41.258296 688.623786 40.427275 
C 687.792766 39.596255 686.665502 39.129327 685.490262 39.129327 
C 684.315022 39.129327 683.187758 39.596255 682.356738 40.427275 
C 681.525717 41.258296 681.05879 42.385559 681.05879 43.5608 
C 681.05879 44.73604 681.525717 45.863303 682.356738 46.694324 
C 683.187758 47.525344 684.315022 47.992272 685.490262 47.992272 
z
" clip-path="url(#p5a7fff6ce1)" style="fill: #bb8bff; stroke: #bb8bff; stroke-width: 1.5; stroke-linejoin: miter"/>
   </g>
   <g id="patch_46">
    <path d="M 685.490262 93.443271 
C 686.665502 93.443271 687.792766 92.976343 688.623786 92.145323 
C 689.454807 91.314303 689.921734 90.187039 689.921734 89.011799 
C 689.921734 87.836559 689.454807 86.709295 688.623786 85.878275 
C 687.792766 85.047254 686.665502 84.580326 685.490262 84.580326 
C 684.315022 84.580326 683.187758 85.047254 682.356738 85.878275 
C 681.525717 86.709295 681.05879 87.836559 681.05879 89.011799 
C 681.05879 90.187039 681.525717 91.314303 682.356738 92.145323 
C 683.187758 92.976343 684.315022 93.443271 685.490262 93.443271 
z
" clip-path="url(#p5a7fff6ce1)" style="fill: #bb8bff; stroke: #bb8bff; stroke-width: 1.5; stroke-linejoin: miter"/>
   </g>
   <g id="patch_47">
    <path d="M 685.490262 235.704899 
C 688.232489 235.704899 690.862771 234.615401 692.801819 232.676354 
C 694.740866 230.737306 695.830364 228.107024 695.830364 225.364797 
C 695.830364 222.62257 694.740866 219.992288 692.801819 218.053241 
C 690.862771 216.114193 688.232489 215.024695 685.490262 215.024695 
C 682.748035 215.024695 680.117753 216.114193 678.178706 218.053241 
C 676.239658 219.992288 675.15016 222.62257 675.15016 225.364797 
C 675.15016 228.107024 676.239658 230.737306 678.178706 232.676354 
C 680.117753 234.615401 682.748035 235.704899 685.490262 235.704899 
z
" clip-path="url(#p5a7fff6ce1)" style="fill: #bb8bff; stroke: #bb8bff; stroke-width: 2; stroke-linejoin: miter"/>
   </g>
   <g id="patch_48">
    <path d="M 716.169687 103.783374 
L 745.712836 103.783374 
L 745.712836 74.240224 
L 716.169687 74.240224 
z
" clip-path="url(#p5a7fff6ce1)" style="fill: #05bab6; stroke: #05bab6; stroke-width: 1.5; stroke-linejoin: miter"/>
   </g>
   <g id="patch_49">
    <path d="M 821.84326 47.992272 
C 823.0185 47.992272 824.145764 47.525344 824.976784 46.694324 
C 825.807805 45.863303 826.274733 44.73604 826.274733 43.5608 
C 826.274733 42.385559 825.807805 41.258296 824.976784 40.427275 
C 824.145764 39.596255 823.0185 39.129327 821.84326 39.129327 
C 820.66802 39.129327 819.540756 39.596255 818.709736 40.427275 
C 817.878716 41.258296 817.411788 42.385559 817.411788 43.5608 
C 817.411788 44.73604 817.878716 45.863303 818.709736 46.694324 
C 819.540756 47.525344 820.66802 47.992272 821.84326 47.992272 
z
" clip-path="url(#p5a7fff6ce1)" style="fill: #bb8bff; stroke: #bb8bff; stroke-width: 1.5; stroke-linejoin: miter"/>
   </g>
   <g id="patch_50">
    <path d="M 821.84326 93.443271 
C 823.0185 93.443271 824.145764 92.976343 824.976784 92.145323 
C 825.807805 91.314303 826.274733 90.187039 826.274733 89.011799 
C 826.274733 87.836559 825.807805 86.709295 824.976784 85.878275 
C 824.145764 85.047254 823.0185 84.580326 821.84326 84.580326 
C 820.66802 84.580326 819.540756 85.047254 818.709736 85.878275 
C 817.878716 86.709295 817.411788 87.836559 817.411788 89.011799 
C 817.411788 90.187039 817.878716 91.314303 818.709736 92.145323 
C 819.540756 92.976343 820.66802 93.443271 821.84326 93.443271 
z
" clip-path="url(#p5a7fff6ce1)" style="fill: #bb8bff; stroke: #bb8bff; stroke-width: 1.5; stroke-linejoin: miter"/>
   </g>
   <g id="patch_51">
    <path d="M 821.84326 144.802901 
C 824.585487 144.802901 827.215769 143.713402 829.154817 141.774355 
C 831.093864 139.835307 832.183363 137.205026 832.183363 134.462798 
C 832.183363 131.720571 831.093864 129.090289 829.154817 127.151242 
C 827.215769 125.212194 824.585487 124.122696 821.84326 124.122696 
C 819.101033 124.122696 816.470751 125.212194 814.531704 127.151242 
C 812.592656 129.090289 811.503158 131.720571 811.503158 134.462798 
C 811.503158 137.205026 812.592656 139.835307 814.531704 141.774355 
C 816.470751 143.713402 819.101033 144.802901 821.84326 144.802901 
z
" clip-path="url(#p5a7fff6ce1)" style="fill: #bb8bff; stroke: #bb8bff; stroke-width: 2; stroke-linejoin: miter"/>
   </g>
   <g id="patch_52">
    <path d="M 867.29426 47.992272 
C 868.4695 47.992272 869.596763 47.525344 870.427784 46.694324 
C 871.258804 45.863303 871.725732 44.73604 871.725732 43.5608 
C 871.725732 42.385559 871.258804 41.258296 870.427784 40.427275 
C 869.596763 39.596255 868.4695 39.129327 867.29426 39.129327 
C 866.119019 39.129327 864.991756 39.596255 864.160735 40.427275 
C 863.329715 41.258296 862.862787 42.385559 862.862787 43.5608 
C 862.862787 44.73604 863.329715 45.863303 864.160735 46.694324 
C 864.991756 47.525344 866.119019 47.992272 867.29426 47.992272 
z
" clip-path="url(#p5a7fff6ce1)" style="fill: #bb8bff; stroke: #bb8bff; stroke-width: 1.5; stroke-linejoin: miter"/>
   </g>
   <g id="patch_53">
    <path d="M 867.29426 93.443271 
C 868.4695 93.443271 869.596763 92.976343 870.427784 92.145323 
C 871.258804 91.314303 871.725732 90.187039 871.725732 89.011799 
C 871.725732 87.836559 871.258804 86.709295 870.427784 85.878275 
C 869.596763 85.047254 868.4695 84.580326 867.29426 84.580326 
C 866.119019 84.580326 864.991756 85.047254 864.160735 85.878275 
C 863.329715 86.709295 862.862787 87.836559 862.862787 89.011799 
C 862.862787 90.187039 863.329715 91.314303 864.160735 92.145323 
C 864.991756 92.976343 866.119019 93.443271 867.29426 93.443271 
z
" clip-path="url(#p5a7fff6ce1)" style="fill: #bb8bff; stroke: #bb8bff; stroke-width: 1.5; stroke-linejoin: miter"/>
   </g>
   <g id="patch_54">
    <path d="M 867.29426 190.2539 
C 870.036487 190.2539 872.666769 189.164402 874.605816 187.225354 
C 876.544864 185.286307 877.634362 182.656025 877.634362 179.913798 
C 877.634362 177.171571 876.544864 174.541289 874.605816 172.602241 
C 872.666769 170.663194 870.036487 169.573695 867.29426 169.573695 
C 864.552032 169.573695 861.921751 170.663194 859.982703 172.602241 
C 858.043656 174.541289 856.954157 177.171571 856.954157 179.913798 
C 856.954157 182.656025 858.043656 185.286307 859.982703 187.225354 
C 861.921751 189.164402 864.552032 190.2539 867.29426 190.2539 
z
" clip-path="url(#p5a7fff6ce1)" style="fill: #bb8bff; stroke: #bb8bff; stroke-width: 2; stroke-linejoin: miter"/>
   </g>
   <g id="patch_55">
    <path d="M 912.745259 47.992272 
C 913.920499 47.992272 915.047763 47.525344 915.878783 46.694324 
C 916.709804 45.863303 917.176731 44.73604 917.176731 43.5608 
C 917.176731 42.385559 916.709804 41.258296 915.878783 40.427275 
C 915.047763 39.596255 913.920499 39.129327 912.745259 39.129327 
C 911.570019 39.129327 910.442755 39.596255 909.611735 40.427275 
C 908.780714 41.258296 908.313787 42.385559 908.313787 43.5608 
C 908.313787 44.73604 908.780714 45.863303 909.611735 46.694324 
C 910.442755 47.525344 911.570019 47.992272 912.745259 47.992272 
z
" clip-path="url(#p5a7fff6ce1)" style="fill: #bb8bff; stroke: #bb8bff; stroke-width: 1.5; stroke-linejoin: miter"/>
   </g>
   <g id="patch_56">
    <path d="M 912.745259 93.443271 
C 913.920499 93.443271 915.047763 92.976343 915.878783 92.145323 
C 916.709804 91.314303 917.176731 90.187039 917.176731 89.011799 
C 917.176731 87.836559 916.709804 86.709295 915.878783 85.878275 
C 915.047763 85.047254 913.920499 84.580326 912.745259 84.580326 
C 911.570019 84.580326 910.442755 85.047254 909.611735 85.878275 
C 908.780714 86.709295 908.313787 87.836559 908.313787 89.011799 
C 908.313787 90.187039 908.780714 91.314303 909.611735 92.145323 
C 910.442755 92.976343 911.570019 93.443271 912.745259 93.443271 
z
" clip-path="url(#p5a7fff6ce1)" style="fill: #bb8bff; stroke: #bb8bff; stroke-width: 1.5; stroke-linejoin: miter"/>
   </g>
   <g id="patch_57">
    <path d="M 912.745259 235.704899 
C 915.487486 235.704899 918.117768 234.615401 920.056816 232.676354 
C 921.995863 230.737306 923.085361 228.107024 923.085361 225.364797 
C 923.085361 222.62257 921.995863 219.992288 920.056816 218.053241 
C 918.117768 216.114193 915.487486 215.024695 912.745259 215.024695 
C 910.003032 215.024695 907.37275 216.114193 905.433703 218.053241 
C 903.494655 219.992288 902.405157 222.62257 902.405157 225.364797 
C 902.405157 228.107024 903.494655 230.737306 905.433703 232.676354 
C 907.37275 234.615401 910.003032 235.704899 912.745259 235.704899 
z
" clip-path="url(#p5a7fff6ce1)" style="fill: #bb8bff; stroke: #bb8bff; stroke-width: 2; stroke-linejoin: miter"/>
   </g>
   <g id="text_1">
    <g clip-path="url(#p5a7fff6ce1)">
     <!-- ${address}_{0}$ -->
     <g transform="translate(34.45703 48.044784)scale(0.1625 -0.1625)">
      <defs>
       <path id="DejaVuSans-Oblique-61" d="M 3438 1997 
L 3047 0 
L 2472 0 
L 2578 531 
Q 2325 219 2001 64 
Q 1678 -91 1281 -91 
Q 834 -91 548 182 
Q 263 456 263 884 
Q 263 1497 752 1853 
Q 1241 2209 2100 2209 
L 2900 2209 
L 2931 2363 
Q 2938 2388 2941 2417 
Q 2944 2447 2944 2509 
Q 2944 2788 2717 2942 
Q 2491 3097 2081 3097 
Q 1800 3097 1504 3025 
Q 1209 2953 897 2809 
L 997 3341 
Q 1322 3463 1633 3523 
Q 1944 3584 2234 3584 
Q 2853 3584 3176 3315 
Q 3500 3047 3500 2534 
Q 3500 2431 3484 2292 
Q 3469 2153 3438 1997 
z
M 2816 1759 
L 2241 1759 
Q 1534 1759 1195 1570 
Q 856 1381 856 984 
Q 856 709 1029 553 
Q 1203 397 1509 397 
Q 1978 397 2328 733 
Q 2678 1069 2791 1631 
L 2816 1759 
z
" transform="scale(0.015625)"/>
       <path id="DejaVuSans-Oblique-64" d="M 2675 525 
Q 2444 222 2128 65 
Q 1813 -91 1428 -91 
Q 903 -91 598 267 
Q 294 625 294 1247 
Q 294 1766 478 2236 
Q 663 2706 1013 3078 
Q 1244 3325 1534 3454 
Q 1825 3584 2144 3584 
Q 2481 3584 2739 3421 
Q 2997 3259 3138 2956 
L 3513 4863 
L 4091 4863 
L 3144 0 
L 2566 0 
L 2675 525 
z
M 891 1350 
Q 891 897 1095 644 
Q 1300 391 1663 391 
Q 1931 391 2161 520 
Q 2391 650 2566 903 
Q 2750 1166 2856 1509 
Q 2963 1853 2963 2188 
Q 2963 2622 2758 2865 
Q 2553 3109 2194 3109 
Q 1922 3109 1687 2981 
Q 1453 2853 1288 2613 
Q 1106 2353 998 2009 
Q 891 1666 891 1350 
z
" transform="scale(0.015625)"/>
       <path id="DejaVuSans-Oblique-72" d="M 2853 2969 
Q 2766 3016 2653 3041 
Q 2541 3066 2413 3066 
Q 1953 3066 1609 2717 
Q 1266 2369 1153 1784 
L 800 0 
L 225 0 
L 909 3500 
L 1484 3500 
L 1375 2956 
Q 1603 3259 1920 3421 
Q 2238 3584 2597 3584 
Q 2691 3584 2781 3573 
Q 2872 3563 2963 3538 
L 2853 2969 
z
" transform="scale(0.015625)"/>
       <path id="DejaVuSans-Oblique-65" d="M 3078 2063 
Q 3088 2113 3092 2166 
Q 3097 2219 3097 2272 
Q 3097 2653 2873 2875 
Q 2650 3097 2266 3097 
Q 1838 3097 1509 2826 
Q 1181 2556 1013 2059 
L 3078 2063 
z
M 3578 1613 
L 903 1613 
Q 884 1494 878 1425 
Q 872 1356 872 1306 
Q 872 872 1139 634 
Q 1406 397 1894 397 
Q 2269 397 2603 481 
Q 2938 566 3225 728 
L 3116 159 
Q 2806 34 2476 -28 
Q 2147 -91 1806 -91 
Q 1078 -91 686 257 
Q 294 606 294 1247 
Q 294 1794 489 2264 
Q 684 2734 1063 3103 
Q 1306 3334 1642 3459 
Q 1978 3584 2356 3584 
Q 2950 3584 3301 3228 
Q 3653 2872 3653 2272 
Q 3653 2128 3634 1964 
Q 3616 1800 3578 1613 
z
" transform="scale(0.015625)"/>
       <path id="DejaVuSans-Oblique-73" d="M 3200 3397 
L 3091 2853 
Q 2863 2978 2609 3040 
Q 2356 3103 2088 3103 
Q 1634 3103 1373 2948 
Q 1113 2794 1113 2528 
Q 1113 2219 1719 2053 
Q 1766 2041 1788 2034 
L 1972 1978 
Q 2547 1819 2739 1644 
Q 2931 1469 2931 1166 
Q 2931 609 2489 259 
Q 2047 -91 1331 -91 
Q 1053 -91 747 -37 
Q 441 16 72 128 
L 184 722 
Q 500 559 806 475 
Q 1113 391 1394 391 
Q 1816 391 2080 572 
Q 2344 753 2344 1031 
Q 2344 1331 1650 1516 
L 1591 1531 
L 1394 1581 
Q 956 1697 753 1886 
Q 550 2075 550 2369 
Q 550 2928 970 3256 
Q 1391 3584 2113 3584 
Q 2397 3584 2667 3537 
Q 2938 3491 3200 3397 
z
" transform="scale(0.015625)"/>
       <path id="DejaVuSans-30" d="M 2034 4250 
Q 1547 4250 1301 3770 
Q 1056 3291 1056 2328 
Q 1056 1369 1301 889 
Q 1547 409 2034 409 
Q 2525 409 2770 889 
Q 3016 1369 3016 2328 
Q 3016 3291 2770 3770 
Q 2525 4250 2034 4250 
z
M 2034 4750 
Q 2819 4750 3233 4129 
Q 3647 3509 3647 2328 
Q 3647 1150 3233 529 
Q 2819 -91 2034 -91 
Q 1250 -91 836 529 
Q 422 1150 422 2328 
Q 422 3509 836 4129 
Q 1250 4750 2034 4750 
z
" transform="scale(0.015625)"/>
      </defs>
      <use xlink:href="#DejaVuSans-Oblique-61" transform="translate(0 0.015625)"/>
      <use xlink:href="#DejaVuSans-Oblique-64" transform="translate(61.279297 0.015625)"/>
      <use xlink:href="#DejaVuSans-Oblique-64" transform="translate(124.755859 0.015625)"/>
      <use xlink:href="#DejaVuSans-Oblique-72" transform="translate(188.232422 0.015625)"/>
      <use xlink:href="#DejaVuSans-Oblique-65" transform="translate(229.345703 0.015625)"/>
      <use xlink:href="#DejaVuSans-Oblique-73" transform="translate(290.869141 0.015625)"/>
      <use xlink:href="#DejaVuSans-Oblique-73" transform="translate(342.96875 0.015625)"/>
      <use xlink:href="#DejaVuSans-30" transform="translate(395.068359 -16.390625)scale(0.7)"/>
     </g>
    </g>
   </g>
   <g id="text_2">
    <g clip-path="url(#p5a7fff6ce1)">
     <!-- ${address}_{1}$ -->
     <g transform="translate(34.45703 93.495783)scale(0.1625 -0.1625)">
      <defs>
       <path id="DejaVuSans-31" d="M 794 531 
L 1825 531 
L 1825 4091 
L 703 3866 
L 703 4441 
L 1819 4666 
L 2450 4666 
L 2450 531 
L 3481 531 
L 3481 0 
L 794 0 
L 794 531 
z
" transform="scale(0.015625)"/>
      </defs>
      <use xlink:href="#DejaVuSans-Oblique-61" transform="translate(0 0.015625)"/>
      <use xlink:href="#DejaVuSans-Oblique-64" transform="translate(61.279297 0.015625)"/>
      <use xlink:href="#DejaVuSans-Oblique-64" transform="translate(124.755859 0.015625)"/>
      <use xlink:href="#DejaVuSans-Oblique-72" transform="translate(188.232422 0.015625)"/>
      <use xlink:href="#DejaVuSans-Oblique-65" transform="translate(229.345703 0.015625)"/>
      <use xlink:href="#DejaVuSans-Oblique-73" transform="translate(290.869141 0.015625)"/>
      <use xlink:href="#DejaVuSans-Oblique-73" transform="translate(342.96875 0.015625)"/>
      <use xlink:href="#DejaVuSans-31" transform="translate(395.068359 -16.390625)scale(0.7)"/>
     </g>
    </g>
   </g>
   <g id="text_3">
    <g clip-path="url(#p5a7fff6ce1)">
     <!-- ${data}_{0}$ -->
     <g transform="translate(62.08203 138.946783)scale(0.1625 -0.1625)">
      <defs>
       <path id="DejaVuSans-Oblique-74" d="M 2706 3500 
L 2619 3053 
L 1472 3053 
L 1100 1153 
Q 1081 1047 1072 975 
Q 1063 903 1063 863 
Q 1063 663 1183 572 
Q 1303 481 1569 481 
L 2150 481 
L 2053 0 
L 1503 0 
Q 991 0 739 200 
Q 488 400 488 806 
Q 488 878 497 964 
Q 506 1050 525 1153 
L 897 3053 
L 409 3053 
L 500 3500 
L 978 3500 
L 1172 4494 
L 1747 4494 
L 1556 3500 
L 2706 3500 
z
" transform="scale(0.015625)"/>
      </defs>
      <use xlink:href="#DejaVuSans-Oblique-64" transform="translate(0 0.015625)"/>
      <use xlink:href="#DejaVuSans-Oblique-61" transform="translate(63.476562 0.015625)"/>
      <use xlink:href="#DejaVuSans-Oblique-74" transform="translate(124.755859 0.015625)"/>
      <use xlink:href="#DejaVuSans-Oblique-61" transform="translate(163.964844 0.015625)"/>
      <use xlink:href="#DejaVuSans-30" transform="translate(225.244141 -16.390625)scale(0.7)"/>
     </g>
    </g>
   </g>
   <g id="text_4">
    <g clip-path="url(#p5a7fff6ce1)">
     <!-- ${data}_{1}$ -->
     <g transform="translate(62.08203 184.397782)scale(0.1625 -0.1625)">
      <use xlink:href="#DejaVuSans-Oblique-64" transform="translate(0 0.015625)"/>
      <use xlink:href="#DejaVuSans-Oblique-61" transform="translate(63.476562 0.015625)"/>
      <use xlink:href="#DejaVuSans-Oblique-74" transform="translate(124.755859 0.015625)"/>
      <use xlink:href="#DejaVuSans-Oblique-61" transform="translate(163.964844 0.015625)"/>
      <use xlink:href="#DejaVuSans-31" transform="translate(225.244141 -16.390625)scale(0.7)"/>
     </g>
    </g>
   </g>
   <g id="text_5">
    <g clip-path="url(#p5a7fff6ce1)">
     <!-- ${data}_{2}$ -->
     <g transform="translate(62.08203 229.848781)scale(0.1625 -0.1625)">
      <defs>
       <path id="DejaVuSans-32" d="M 1228 531 
L 3431 531 
L 3431 0 
L 469 0 
L 469 531 
Q 828 903 1448 1529 
Q 2069 2156 2228 2338 
Q 2531 2678 2651 2914 
Q 2772 3150 2772 3378 
Q 2772 3750 2511 3984 
Q 2250 4219 1831 4219 
Q 1534 4219 1204 4116 
Q 875 4013 500 3803 
L 500 4441 
Q 881 4594 1212 4672 
Q 1544 4750 1819 4750 
Q 2544 4750 2975 4387 
Q 3406 4025 3406 3419 
Q 3406 3131 3298 2873 
Q 3191 2616 2906 2266 
Q 2828 2175 2409 1742 
Q 1991 1309 1228 531 
z
" transform="scale(0.015625)"/>
      </defs>
      <use xlink:href="#DejaVuSans-Oblique-64" transform="translate(0 0.015625)"/>
      <use xlink:href="#DejaVuSans-Oblique-61" transform="translate(63.476562 0.015625)"/>
      <use xlink:href="#DejaVuSans-Oblique-74" transform="translate(124.755859 0.015625)"/>
      <use xlink:href="#DejaVuSans-Oblique-61" transform="translate(163.964844 0.015625)"/>
      <use xlink:href="#DejaVuSans-32" transform="translate(225.244141 -16.390625)scale(0.7)"/>
     </g>
    </g>
   </g>
   <g id="text_6">
    <g clip-path="url(#p5a7fff6ce1)">
     <!-- H -->
     <g transform="translate(135.190066 47.147987)scale(0.13 -0.13)">
      <defs>
       <path id="DejaVuSans-48" d="M 628 4666 
L 1259 4666 
L 1259 2753 
L 3553 2753 
L 3553 4666 
L 4184 4666 
L 4184 0 
L 3553 0 
L 3553 2222 
L 1259 2222 
L 1259 0 
L 628 0 
L 628 4666 
z
" transform="scale(0.015625)"/>
      </defs>
      <use xlink:href="#DejaVuSans-48"/>
     </g>
    </g>
   </g>
   <g id="text_7">
    <g clip-path="url(#p5a7fff6ce1)">
     <!-- H -->
     <g transform="translate(135.190066 92.598986)scale(0.13 -0.13)">
      <use xlink:href="#DejaVuSans-48"/>
     </g>
    </g>
   </g>
   <g id="line2d_13">
    <path d="M 185.529269 20.8353 
L 185.529269 66.286299 
" clip-path="url(#p5a7fff6ce1)" style="fill: none; stroke-dasharray: 3.7,1.6; stroke-dashoffset: 0; stroke: #000000"/>
   </g>
   <g id="line2d_14">
    <path d="M 185.529269 66.286299 
L 185.529269 111.737299 
" clip-path="url(#p5a7fff6ce1)" style="fill: none; stroke-dasharray: 3.7,1.6; stroke-dashoffset: 0; stroke: #000000"/>
   </g>
   <g id="line2d_15">
    <path d="M 185.529269 111.737299 
L 185.529269 157.188298 
" clip-path="url(#p5a7fff6ce1)" style="fill: none; stroke-dasharray: 3.7,1.6; stroke-dashoffset: 0; stroke: #000000"/>
   </g>
   <g id="line2d_16">
    <path d="M 185.529269 157.188298 
L 185.529269 202.639297 
" clip-path="url(#p5a7fff6ce1)" style="fill: none; stroke-dasharray: 3.7,1.6; stroke-dashoffset: 0; stroke: #000000"/>
   </g>
   <g id="line2d_17">
    <path d="M 185.529269 202.639297 
L 185.529269 248.090297 
" clip-path="url(#p5a7fff6ce1)" style="fill: none; stroke-dasharray: 3.7,1.6; stroke-dashoffset: 0; stroke: #000000"/>
   </g>
   <g id="text_8">
    <g clip-path="url(#p5a7fff6ce1)">
     <!-- X -->
     <g transform="translate(226.527768 47.147987)scale(0.13 -0.13)">
      <defs>
       <path id="DejaVuSans-58" d="M 403 4666 
L 1081 4666 
L 2241 2931 
L 3406 4666 
L 4084 4666 
L 2584 2425 
L 4184 0 
L 3506 0 
L 2194 1984 
L 872 0 
L 191 0 
L 1856 2491 
L 403 4666 
z
" transform="scale(0.015625)"/>
      </defs>
      <use xlink:href="#DejaVuSans-58"/>
     </g>
    </g>
   </g>
   <g id="text_9">
    <g clip-path="url(#p5a7fff6ce1)">
     <!-- X -->
     <g transform="translate(226.527768 92.598986)scale(0.13 -0.13)">
      <use xlink:href="#DejaVuSans-58"/>
     </g>
    </g>
   </g>
   <g id="line2d_18">
    <path d="M 276.431267 185.822428 
L 276.431267 174.005168 
" clip-path="url(#p5a7fff6ce1)" style="fill: none; stroke: #ffffff; stroke-width: 2; stroke-linecap: square"/>
   </g>
   <g id="line2d_19">
    <path d="M 270.522638 179.913798 
L 282.339897 179.913798 
" clip-path="url(#p5a7fff6ce1)" style="fill: none; stroke: #ffffff; stroke-width: 2; stroke-linecap: square"/>
   </g>
   <g id="text_10">
    <g clip-path="url(#p5a7fff6ce1)">
     <!-- X -->
     <g transform="translate(317.429767 47.147987)scale(0.13 -0.13)">
      <use xlink:href="#DejaVuSans-58"/>
     </g>
    </g>
   </g>
   <g id="text_11">
    <g clip-path="url(#p5a7fff6ce1)">
     <!-- X -->
     <g transform="translate(317.429767 92.598986)scale(0.13 -0.13)">
      <use xlink:href="#DejaVuSans-58"/>
     </g>
    </g>
   </g>
   <g id="line2d_20">
    <path d="M 367.333266 20.8353 
L 367.333266 66.286299 
" clip-path="url(#p5a7fff6ce1)" style="fill: none; stroke-dasharray: 3.7,1.6; stroke-dashoffset: 0; stroke: #000000"/>
   </g>
   <g id="line2d_21">
    <path d="M 367.333266 66.286299 
L 367.333266 111.737299 
" clip-path="url(#p5a7fff6ce1)" style="fill: none; stroke-dasharray: 3.7,1.6; stroke-dashoffset: 0; stroke: #000000"/>
   </g>
   <g id="line2d_22">
    <path d="M 367.333266 111.737299 
L 367.333266 157.188298 
" clip-path="url(#p5a7fff6ce1)" style="fill: none; stroke-dasharray: 3.7,1.6; stroke-dashoffset: 0; stroke: #000000"/>
   </g>
   <g id="line2d_23">
    <path d="M 367.333266 157.188298 
L 367.333266 202.639297 
" clip-path="url(#p5a7fff6ce1)" style="fill: none; stroke-dasharray: 3.7,1.6; stroke-dashoffset: 0; stroke: #000000"/>
   </g>
   <g id="line2d_24">
    <path d="M 367.333266 202.639297 
L 367.333266 248.090297 
" clip-path="url(#p5a7fff6ce1)" style="fill: none; stroke-dasharray: 3.7,1.6; stroke-dashoffset: 0; stroke: #000000"/>
   </g>
   <g id="text_12">
    <g clip-path="url(#p5a7fff6ce1)">
     <!-- X -->
     <g transform="translate(408.331766 47.147987)scale(0.13 -0.13)">
      <use xlink:href="#DejaVuSans-58"/>
     </g>
    </g>
   </g>
   <g id="line2d_25">
    <path d="M 458.235265 140.371428 
L 458.235265 128.554168 
" clip-path="url(#p5a7fff6ce1)" style="fill: none; stroke: #ffffff; stroke-width: 2; stroke-linecap: square"/>
   </g>
   <g id="line2d_26">
    <path d="M 452.326635 134.462798 
L 464.143895 134.462798 
" clip-path="url(#p5a7fff6ce1)" style="fill: none; stroke: #ffffff; stroke-width: 2; stroke-linecap: square"/>
   </g>
   <g id="text_13">
    <g clip-path="url(#p5a7fff6ce1)">
     <!-- X -->
     <g transform="translate(499.233764 47.147987)scale(0.13 -0.13)">
      <use xlink:href="#DejaVuSans-58"/>
     </g>
    </g>
   </g>
   <g id="line2d_27">
    <path d="M 549.137264 20.8353 
L 549.137264 66.286299 
" clip-path="url(#p5a7fff6ce1)" style="fill: none; stroke-dasharray: 3.7,1.6; stroke-dashoffset: 0; stroke: #000000"/>
   </g>
   <g id="line2d_28">
    <path d="M 549.137264 66.286299 
L 549.137264 111.737299 
" clip-path="url(#p5a7fff6ce1)" style="fill: none; stroke-dasharray: 3.7,1.6; stroke-dashoffset: 0; stroke: #000000"/>
   </g>
   <g id="line2d_29">
    <path d="M 549.137264 111.737299 
L 549.137264 157.188298 
" clip-path="url(#p5a7fff6ce1)" style="fill: none; stroke-dasharray: 3.7,1.6; stroke-dashoffset: 0; stroke: #000000"/>
   </g>
   <g id="line2d_30">
    <path d="M 549.137264 157.188298 
L 549.137264 202.639297 
" clip-path="url(#p5a7fff6ce1)" style="fill: none; stroke-dasharray: 3.7,1.6; stroke-dashoffset: 0; stroke: #000000"/>
   </g>
   <g id="line2d_31">
    <path d="M 549.137264 202.639297 
L 549.137264 248.090297 
" clip-path="url(#p5a7fff6ce1)" style="fill: none; stroke-dasharray: 3.7,1.6; stroke-dashoffset: 0; stroke: #000000"/>
   </g>
   <g id="text_14">
    <g clip-path="url(#p5a7fff6ce1)">
     <!-- X -->
     <g transform="translate(590.135763 92.598986)scale(0.13 -0.13)">
      <use xlink:href="#DejaVuSans-58"/>
     </g>
    </g>
   </g>
   <g id="line2d_32">
    <path d="M 640.039263 140.371428 
L 640.039263 128.554168 
" clip-path="url(#p5a7fff6ce1)" style="fill: none; stroke: #ffffff; stroke-width: 2; stroke-linecap: square"/>
   </g>
   <g id="line2d_33">
    <path d="M 634.130633 134.462798 
L 645.947893 134.462798 
" clip-path="url(#p5a7fff6ce1)" style="fill: none; stroke: #ffffff; stroke-width: 2; stroke-linecap: square"/>
   </g>
   <g id="line2d_34">
    <path d="M 685.490262 231.273427 
L 685.490262 219.456167 
" clip-path="url(#p5a7fff6ce1)" style="fill: none; stroke: #ffffff; stroke-width: 2; stroke-linecap: square"/>
   </g>
   <g id="line2d_35">
    <path d="M 679.581632 225.364797 
L 691.398892 225.364797 
" clip-path="url(#p5a7fff6ce1)" style="fill: none; stroke: #ffffff; stroke-width: 2; stroke-linecap: square"/>
   </g>
   <g id="text_15">
    <g clip-path="url(#p5a7fff6ce1)">
     <!-- X -->
     <g transform="translate(726.488761 92.598986)scale(0.13 -0.13)">
      <use xlink:href="#DejaVuSans-58"/>
     </g>
    </g>
   </g>
   <g id="line2d_36">
    <path d="M 776.392261 20.8353 
L 776.392261 66.286299 
" clip-path="url(#p5a7fff6ce1)" style="fill: none; stroke-dasharray: 3.7,1.6; stroke-dashoffset: 0; stroke: #000000"/>
   </g>
   <g id="line2d_37">
    <path d="M 776.392261 66.286299 
L 776.392261 111.737299 
" clip-path="url(#p5a7fff6ce1)" style="fill: none; stroke-dasharray: 3.7,1.6; stroke-dashoffset: 0; stroke: #000000"/>
   </g>
   <g id="line2d_38">
    <path d="M 776.392261 111.737299 
L 776.392261 157.188298 
" clip-path="url(#p5a7fff6ce1)" style="fill: none; stroke-dasharray: 3.7,1.6; stroke-dashoffset: 0; stroke: #000000"/>
   </g>
   <g id="line2d_39">
    <path d="M 776.392261 157.188298 
L 776.392261 202.639297 
" clip-path="url(#p5a7fff6ce1)" style="fill: none; stroke-dasharray: 3.7,1.6; stroke-dashoffset: 0; stroke: #000000"/>
   </g>
   <g id="line2d_40">
    <path d="M 776.392261 202.639297 
L 776.392261 248.090297 
" clip-path="url(#p5a7fff6ce1)" style="fill: none; stroke-dasharray: 3.7,1.6; stroke-dashoffset: 0; stroke: #000000"/>
   </g>
   <g id="line2d_41">
    <path d="M 821.84326 140.371428 
L 821.84326 128.554168 
" clip-path="url(#p5a7fff6ce1)" style="fill: none; stroke: #ffffff; stroke-width: 2; stroke-linecap: square"/>
   </g>
   <g id="line2d_42">
    <path d="M 815.93463 134.462798 
L 827.75189 134.462798 
" clip-path="url(#p5a7fff6ce1)" style="fill: none; stroke: #ffffff; stroke-width: 2; stroke-linecap: square"/>
   </g>
   <g id="line2d_43">
    <path d="M 867.29426 185.822428 
L 867.29426 174.005168 
" clip-path="url(#p5a7fff6ce1)" style="fill: none; stroke: #ffffff; stroke-width: 2; stroke-linecap: square"/>
   </g>
   <g id="line2d_44">
    <path d="M 861.38563 179.913798 
L 873.20289 179.913798 
" clip-path="url(#p5a7fff6ce1)" style="fill: none; stroke: #ffffff; stroke-width: 2; stroke-linecap: square"/>
   </g>
   <g id="line2d_45">
    <path d="M 912.745259 231.273427 
L 912.745259 219.456167 
" clip-path="url(#p5a7fff6ce1)" style="fill: none; stroke: #ffffff; stroke-width: 2; stroke-linecap: square"/>
   </g>
   <g id="line2d_46">
    <path d="M 906.836629 225.364797 
L 918.653889 225.364797 
" clip-path="url(#p5a7fff6ce1)" style="fill: none; stroke: #ffffff; stroke-width: 2; stroke-linecap: square"/>
   </g>
   <g id="line2d_47">
    <path d="M 958.196258 20.8353 
L 958.196258 66.286299 
" clip-path="url(#p5a7fff6ce1)" style="fill: none; stroke-dasharray: 3.7,1.6; stroke-dashoffset: 0; stroke: #000000"/>
   </g>
   <g id="line2d_48">
    <path d="M 958.196258 66.286299 
L 958.196258 111.737299 
" clip-path="url(#p5a7fff6ce1)" style="fill: none; stroke-dasharray: 3.7,1.6; stroke-dashoffset: 0; stroke: #000000"/>
   </g>
   <g id="line2d_49">
    <path d="M 958.196258 111.737299 
L 958.196258 157.188298 
" clip-path="url(#p5a7fff6ce1)" style="fill: none; stroke-dasharray: 3.7,1.6; stroke-dashoffset: 0; stroke: #000000"/>
   </g>
   <g id="line2d_50">
    <path d="M 958.196258 157.188298 
L 958.196258 202.639297 
" clip-path="url(#p5a7fff6ce1)" style="fill: none; stroke-dasharray: 3.7,1.6; stroke-dashoffset: 0; stroke: #000000"/>
   </g>
   <g id="line2d_51">
    <path d="M 958.196258 202.639297 
L 958.196258 248.090297 
" clip-path="url(#p5a7fff6ce1)" style="fill: none; stroke-dasharray: 3.7,1.6; stroke-dashoffset: 0; stroke: #000000"/>
   </g>
  </g>
 </g>
 <defs>
  <clipPath id="p5a7fff6ce1">
   <rect x="7.2" y="7.2" width="980.993918" height="245.435397"/>
  </clipPath>
 </defs>
</svg>
